<?xml version="1.0" encoding="utf-8"?>
<!-- Generator: Adobe Illustrator 25.4.1, SVG Export Plug-In . SVG Version: 6.00 Build 0)  -->
<svg version="1.1" id="Layer_1" xmlns="http://www.w3.org/2000/svg" xmlns:xlink="http://www.w3.org/1999/xlink" x="0px" y="0px"
	 viewBox="0 0 251.82 243.3" style="enable-background:new 0 0 251.82 243.3;" xml:space="preserve">
<style type="text/css">
	.st0{fill:#EBD291;}
	.st1{fill:#29324E;stroke:#29324E;stroke-width:3;stroke-miterlimit:10;}
</style>
<path class="st0" d="M168.64,21.4c-22.55-3.95-45.08-6.86-68.27-5.97c-25.38,0.97-53.4,3.63-66.97,28.9
	c-8.8,16.39-12.19,34.3-13.3,52.74c-1.64,27.09-2.2,57.42,6.92,83.28c12.49,35.41,43.11,43.81,77.05,48.32
	c29.64,3.94,61.86,4.52,89.47-8.53c27.46-12.97,41.38-39.82,43.76-68.94c2.43-29.82,5.22-62.04-4.78-90.9
	C222.46,31.3,195.48,26.11,168.64,21.4z"/>
<g>
	<path class="st1" d="M133.46,74.1c-4.75-1.11-9.77-0.92-14.39,0.66c-4.94,1.7-8.68,5.19-11.76,9.3
		c-9.65,12.88-10.06,29.09-3.71,43.52c1.7,3.87,3.95,7.5,5.84,11.29c2.2,4.41,4.13,8.93,5.77,13.58c1.14,3.23,1.45,6.45,2.3,9.73
		c0.47,1.8,1.37,3.51,2.98,4.3c0.01,0.13,0.07,0.26,0.2,0.32c3.23,1.74,6.88,1.54,10.43,1.02c2.01-0.29,3.97-0.85,5.94-1.3
		c1.87-0.43,3.92-0.39,5.64-1.23c0.01-0.01,0.02-0.02,0.03-0.02c1.44,1.9,3.15,3.62,1.47,5.69c-0.28,0-0.53,0.19-0.54,0.53
		c0,0.01,0,0.02,0,0.04c-2.45,2.25-6.48,2.96-9.66,3.33c-4.57,0.53-17.3,0.57-13.84-7.27c0.16-0.35-0.29-0.62-0.52-0.3
		c-1.66,2.31-1.56,4.67,0.09,6.43c-2.17,3.04-2.86,6.89-0.75,9.96c-1.44,5.46,3.61,9.44,9.21,9.92c3.37,0.29,7.05-0.88,9.85-2.7
		c1.98-1.28,5.52-4.89,5.16-7.73c0.16-0.16,0.33-0.31,0.48-0.48c2.21-2.33,3.84-7.39,1.94-10.44c2.33-2.66,1.04-6.76-1.87-8.55
		c0.02-0.04,0.05-0.08,0.06-0.14c0.69-3.03,0.72-6.06,1.07-9.14c0.4-3.48,1.29-6.91,2.31-10.25c1.92-6.24,4.65-12.21,7.13-18.24
		c4.17-10.12,8.35-21.29,3.54-31.98C153.48,84.25,143.79,76.52,133.46,74.1z M140.2,185.55c-0.67,1.33-1.73,2.45-2.91,3.33
		c-2.28,1.7-5.15,2.53-7.96,2.68c-2.58,0.13-5.37-0.24-7.44-1.9c-1.58-1.27-2.08-3.1-2.13-4.99c0.04,0.04,0.07,0.09,0.11,0.13
		c2.95,2.95,7.82,3.53,11.76,3.17c2.96-0.27,6.03-1.1,8.65-2.62C140.26,185.41,140.24,185.48,140.2,185.55z M144.3,177.11
		c-0.16,1.67-1.11,3.2-2.24,4.39c-2.63,2.76-6.72,4.04-10.42,4.42c-3.41,0.35-7.24,0.07-10.13-1.96c-0.72-0.5-1.24-1.11-1.62-1.77
		c0.02-0.18,0.04-0.36,0.07-0.54c0.01-0.09-0.11-0.16-0.16-0.07c-0.04,0.08-0.08,0.15-0.12,0.23c-1.12-2.37-0.54-5.43,0.13-7.97
		c0.41,0.42,0.91,0.8,1.5,1.14c3.7,2.13,8.55,2.13,12.66,1.72c3.28-0.33,7.07-1.05,9.91-2.98
		C144.13,174.83,144.42,175.93,144.3,177.11z M127.46,159.91c0.01-0.07,0.03-0.13,0.04-0.2c0.07,0.04,0.15,0.07,0.23,0.09
		c1.18,0.19,2.7,0.43,3.42,1.52c0.7,1.07-3.01,1.83-3.48,1.92c-0.14,0.03-0.28,0.09-0.4,0.19
		C127.29,162.25,127.27,161.08,127.46,159.91z M129.05,157.98c0.17-1.17,0.63-2.24,1.26-3.27c0.51,1.37,1.08,2.75,1.78,4.01
		c0.09,0.17,0.19,0.34,0.3,0.5C131.49,158.51,130.2,158.15,129.05,157.98z M129.96,153.81c0-0.01,0.01-0.02,0.02-0.02
		c0,0.01,0.01,0.02,0.01,0.02C129.97,153.81,129.97,153.81,129.96,153.81z M131.83,155.65c-0.11-0.36-0.23-0.71-0.36-1.06
		c1.75,1.4,2.11,3.68,2.44,6.06C133.35,158.96,132.36,157.37,131.83,155.65z M127.03,166.05c0.04-0.09,0.07-0.19,0.09-0.3
		c0.02-0.11,0.02-0.22,0.04-0.33c0.14,0.23,0.29,0.42,0.46,0.56C127.41,166.01,127.22,166.03,127.03,166.05z M130.55,165.51
		c0.01-0.13,0-0.26-0.06-0.36c-0.03-0.05-0.07-0.1-0.1-0.15c1.68-0.65,3.24-1.77,3.12-3.71c0-0.07-0.02-0.13-0.03-0.19
		c0.62,1.52-0.33,2.89-1.31,4.04C131.63,165.28,131.09,165.4,130.55,165.51z M132.53,165.06c0.73-0.75,1.47-1.66,1.63-2.69
		c0.12,0.71,0.26,1.41,0.47,2.08c-0.69,0.21-1.35,0.42-1.96,0.57C132.62,165.04,132.58,165.05,132.53,165.06z M150.88,127.96
		c-2.41,5.59-4.88,11.17-6.68,17c-1.76,5.67-3.57,12.71-1.66,18.51c-0.03-0.01-0.06-0.04-0.09-0.04c-1.51-0.45-3.3-0.2-5.08,0.24
		c0.04-2.83-0.51-6.45-2.21-8.7c-0.96-1.93-2.71-3.18-4.83-3.82c-0.28-1.36,0.25-1.95,1.15-3.18c0.91-1.25,1.84-2.96,0.45-4.21
		c-0.52-0.46-1.33-0.68-1.97-0.93c-1.32-0.5-0.79-2.56-0.78-3.75c0.02-2.24,0.18-4,0.85-6.14c1.05-3.34-0.69-4.64-3.62-4.76
		c0.67-1.96,2.94-3.07,3.73-4.98c0.76-1.85-0.8-3.9-1.89-5.27c-0.71-0.9-0.33-0.89,0.06-2.14c0.41-1.34,0.9-2.65,1.23-4.02
		c0.46-1.89,0.64-4.52-1.2-5.7c-0.52-0.34-1.14,0.21-1,0.77c0.3,1.23,0.69,2.19,0.6,3.49c-0.09,1.31-0.59,2.65-0.99,3.89
		c-0.31,0.97-1.44,3.32-0.53,4.24c0.67,0.67,1.22,1.43,1.71,2.24c0.98,1.6,0.23,2.38-0.83,3.58c-1.22,1.38-2.44,2.76-2.61,4.66
		c-0.04,0.41,0.38,0.79,0.77,0.78c1.77-0.09,3.84-0.2,3.37,2.09c-0.27,1.32-0.81,2.56-1.01,3.91c-0.26,1.8,0,3.78,0.01,5.6
		c0.01,1.35-0.01,2.04,1.36,2.58c1.04,0.41,2.77,0.59,1.86,2.5c-0.39,0.82-1.08,1.52-1.59,2.27c-0.52,0.75-0.56,1.56-0.4,2.37
		c-0.18,0.06-0.35,0.15-0.47,0.29c-2.93,3.58-5.36,9.77-3.78,14.41c0.05,0.16,0.15,0.3,0.27,0.42c-0.92,0.03-1.85,0.01-2.81-0.04
		c-0.06-0.06-0.12-0.11-0.23-0.13c-2.79-0.63-3.23-3.72-3.49-6.13c-0.31-2.8-0.74-5.16-1.65-7.87c-2.13-6.39-4.98-12.52-8.07-18.49
		c-3.01-5.83-5.68-11.45-6.88-17.96c-1.15-6.2-0.74-12.64,1.09-18.66c1.83-6.04,5.5-11.95,10.19-16.19
		c4.11-3.71,9.63-5.23,15.06-5.06c11.41,0.35,22.53,8.84,27.35,18.91C160.94,105.6,155.31,117.68,150.88,127.96z"/>
	<path class="st1" d="M119.76,125.46c-0.83,0.22-1.62,0.17-2.41-0.18c-0.54-0.24-0.9-0.77-1.52-0.76c-0.2,0-0.39,0.17-0.38,0.38
		c0.04,0.86,1.01,1.22,1.71,1.49c0.91,0.35,1.94,0.27,2.85-0.03C120.58,126.18,120.35,125.31,119.76,125.46z"/>
	<path class="st1" d="M120.08,119.86c-0.47-0.48-0.83-1.07-1.16-1.65c-0.37-0.65-0.64-1.35-0.88-2.06c-0.22-0.68-0.28-1.26-0.8-1.77
		c-0.32-0.31-0.78-0.14-0.93,0.25c-0.47,1.25,0.61,2.89,1.24,3.93c0.35,0.59,0.79,1.12,1.24,1.63c0.22,0.25,0.48,0.47,0.74,0.69
		c0.26,0.22,0.49,0.1,0.8,0.22c0.26,0.1,0.39-0.25,0.25-0.43C120.35,120.4,120.36,120.14,120.08,119.86z"/>
	<path class="st1" d="M120.43,109.69c-1.08-2.64-1.3-5.26-1.26-8.09c0-0.34-0.5-0.41-0.59-0.08c-0.73,2.83,0.38,5.74,1.77,8.21
		C120.38,109.77,120.45,109.74,120.43,109.69z"/>
	<path class="st1" d="M126.78,94.18c-2.57,1.48-2.75,4.92-2.12,7.5c0.08,0.32,0.63,0.26,0.59-0.08c-0.14-1.23-0.07-2.4,0.29-3.59
		c0.36-1.19,1.21-2.21,1.77-3.31C127.48,94.37,127.13,93.98,126.78,94.18z"/>
	<path class="st1" d="M138.38,101.75c0.14-0.22-0.09-0.51-0.34-0.44c-1.1,0.34-2.07,1.46-2.94,2.19c-1.12,0.94-2.14,2.03-3.09,3.13
		c-0.04,0.04,0.02,0.1,0.06,0.06c1.04-0.87,2.16-1.62,3.22-2.44C136.26,103.5,137.71,102.78,138.38,101.75z"/>
	<path class="st1" d="M142.35,111.44c-1.51-0.81-3.89,0.46-5.31,1.06c-0.29,0.12-0.19,0.58,0.14,0.49c0.79-0.2,1.59-0.38,2.39-0.51
		c0.91-0.15,1.97,0.01,2.78-0.45C142.56,111.9,142.58,111.56,142.35,111.44z"/>
	<path class="st1" d="M139.14,120.21c-0.75-0.01-1.43-0.15-2.13-0.41c-0.72-0.26-1.47-0.22-1.9-0.99c-0.02-0.03-0.06,0-0.04,0.02
		c0.35,0.66,0.68,1.27,1.21,1.8c0.68,0.7,1.94,0.81,2.87,0.85C139.96,121.53,139.96,120.21,139.14,120.21z"/>
	<path class="st1" d="M134.24,125.62c-0.33-0.16-0.72,0.27-0.41,0.54c1.2,1.04,2.46,2.04,3.6,3.13c0.68,0.65,1.73-0.41,1.03-1.03
		C137.17,127.13,135.76,126.38,134.24,125.62z"/>
	<path class="st1" d="M93.87,135.49c-1.49-0.97-3.27-0.31-4.93,0c-2.5,0.47-5.02,0.99-7.55,1.26c-0.32,0.04-0.42,0.49-0.08,0.59
		c2.16,0.65,3.93,0.59,6.16,0.34c1.96-0.22,4.78,0.09,6.4-1.09C94.26,136.32,94.29,135.77,93.87,135.49z"/>
	<path class="st1" d="M89.64,122.4c0.53-0.22,0.52-0.85,0-1.07c-1.98-0.83-4.67-0.3-6.81-0.41c-2.53-0.13-5.07-0.41-7.49-1.21
		c-0.14-0.05-0.22,0.16-0.1,0.23c2.02,1.25,4.22,2.06,6.58,2.38C84.13,122.65,87.46,123.31,89.64,122.4z"/>
	<path class="st1" d="M78.09,101.03c1.78,1.2,3.48,2.54,5.23,3.8c1.54,1.11,3.31,2.78,5.32,2.42c0.38-0.07,0.54-0.57,0.36-0.88
		c-0.96-1.59-3.18-2.25-4.72-3.18c-1.9-1.14-3.72-2.28-5.79-3.09C77.91,99.87,77.63,100.72,78.09,101.03z"/>
	<path class="st1" d="M87.98,83.03c1.04,1.39,2.6,3.93,4.55,3.88c0.41-0.01,0.61-0.42,0.44-0.77c-0.45-0.93-1.39-1.43-2.12-2.12
		c-0.86-0.82-1.62-1.77-2.37-2.68c-1.44-1.74-2.79-3.4-4.91-4.31c-0.28-0.12-0.65,0.23-0.36,0.47
		C85.08,79.06,86.52,81.1,87.98,83.03z"/>
	<path class="st1" d="M101.13,71.34c0.37-1.63-0.52-3.09-1.19-4.54c-0.93-2.03-2.03-3.93-3.06-5.9c-0.19-0.36-0.69-0.1-0.62,0.26
		c0.39,1.99,1.05,3.78,1.81,5.66c0.64,1.58,0.94,3.54,2.21,4.75C100.54,71.82,101.04,71.73,101.13,71.34z"/>
	<path class="st1" d="M113.48,64.67c0.27,0.12,0.56,0.12,0.78-0.1c0.91-0.91,0.31-2.17,0.08-3.29c-0.36-1.74-0.67-3.51-0.86-5.27
		c-0.09-0.87-1.29-0.89-1.37,0c-0.15,1.7-0.13,3.34,0.08,5.03C112.34,62.22,112.22,64.13,113.48,64.67z"/>
	<path class="st1" d="M129.48,64.39c1-1.57,0.75-3.69,0.94-5.5c0.22-2.12,0.27-3.89-0.2-5.98c-0.05-0.21-0.36-0.2-0.41,0
		c-0.56,2.15-1.02,4.24-1.41,6.43c-0.3,1.7-0.81,3.49,0.12,5.05C128.74,64.76,129.26,64.74,129.48,64.39z"/>
	<path class="st1" d="M142.66,69.66c1.71-1.41,2.49-4.77,3.19-6.83c0.92-2.71,1.63-5.49,1.87-8.34c0.04-0.53-0.83-0.65-0.92-0.12
		c-0.49,2.71-1.46,5.27-2.57,7.78c-0.91,2.07-2.83,4.73-2.73,7.03C141.52,69.81,142.2,70.04,142.66,69.66z"/>
	<path class="st1" d="M163.16,61.91c-1.54,2.12-3.09,4.25-4.43,6.5c-1.16,1.94-3.05,4.53-3,6.84c0.01,0.59,0.68,0.81,1.09,0.45
		c1.71-1.46,2.46-4.38,3.47-6.38c1.19-2.34,2.25-4.74,3.46-7.07C163.95,61.86,163.41,61.56,163.16,61.91z"/>
	<path class="st1" d="M173.06,72.2c-2.08,1.39-3.48,3.78-4.97,5.74c-1.02,1.35-2.1,2.64-3.15,3.96c-0.78,0.97-1.33,1.41-1.14,2.66
		c0.04,0.29,0.38,0.51,0.66,0.5c2.23-0.04,3.85-3.85,4.89-5.49c1.42-2.23,3.23-4.69,3.74-7.34C173.1,72.21,173.08,72.18,173.06,72.2
		z"/>
	<path class="st1" d="M174.36,92.28c1.41-1.47,2.97-2.81,4.42-4.23c0.09-0.09,0.06-0.22-0.04-0.29c-0.08-0.06-0.17-0.14-0.28-0.21
		c0.07-0.03,0.13-0.07,0.19-0.12c0.03-0.02,0-0.06-0.02-0.04c-0.07,0.04-0.14,0.09-0.21,0.13c-0.12-0.08-0.24-0.14-0.36-0.15
		c-0.09-0.01-0.1,0.11-0.04,0.16c0.09,0.06,0.17,0.09,0.26,0.08c-1.6,0.95-3.15,1.99-4.6,3.19c-1.36,1.13-3.36,2.72-3.67,4.57
		c-0.08,0.46,0.36,0.89,0.82,0.63C172.25,95.18,173.22,93.46,174.36,92.28z"/>
	<path class="st1" d="M193.85,101.43c-3.15-0.12-6.2,0.35-9.22,1.26c-1.91,0.57-6.51,2.42-5.54,5.15c0.11,0.3,0.41,0.52,0.74,0.42
		c0.93-0.29,1.47-1.05,2.13-1.72c1.13-1.15,2.82-1.77,4.3-2.29c2.57-0.89,5.27-1.17,7.68-2.5
		C194.09,101.66,194.01,101.44,193.85,101.43z"/>
	<path class="st1" d="M191.85,120.73c-3.06-1.16-6.63-0.74-9.81-0.35c-1.86,0.23-6.97,0.99-7.07,3.51c-0.01,0.27,0.2,0.57,0.47,0.62
		c1.1,0.21,1.76-0.53,2.74-0.94c1.5-0.63,3.18-0.97,4.77-1.27c2.95-0.55,6.06-0.25,8.9-1.33
		C191.98,120.93,191.98,120.77,191.85,120.73z"/>
	<path class="st1" d="M172.19,136.61c-0.51-0.1-0.83,0.57-0.36,0.86c3.82,2.36,8.38,4.03,12.9,3.67c0.02,0,0.03-0.04,0.01-0.05
		C180.24,140.44,176.57,137.44,172.19,136.61z"/>
</g>
</svg>
